<svg width="235" height="60" viewBox="0 0 235 60" fill="none" xmlns="http://www.w3.org/2000/svg">
<path fill-rule="evenodd" clip-rule="evenodd" d="M0.00415919 55.2814L-0.00176725 55.2796C-0.00176725 55.2796 5.17038 52.6841 5.17038 49.8278C5.17038 46.9715 -0.00176725 44.9528 -0.00176725 44.9528C-0.00176725 44.9528 5.17037 42.3573 5.17038 39.501C5.1704 36.6447 -0.00176725 34.626 -0.00176725 34.626C-0.00176725 34.626 5.17038 32.0305 5.17038 29.1742C5.17038 26.3178 -0.00176725 24.2991 -0.00176725 24.2991C-0.00176725 24.2991 5.17069 21.7028 5.17038 18.8463C5.17008 15.99 -0.00176725 13.9713 -0.00176725 13.9713L234.837 0.876343C234.837 0.876343 229.668 3.47234 229.668 6.32797C229.668 9.18361 234.837 11.2031 234.837 11.2031C234.837 11.2031 229.668 13.7992 229.668 16.6548C229.668 19.5104 234.837 21.5299 234.837 21.5299C234.837 21.5299 229.667 24.1268 229.668 26.9827C229.668 29.8383 234.837 31.8578 234.837 31.8578C234.837 31.8578 229.668 34.4538 229.668 37.3095C229.668 40.1651 234.837 42.1846 234.837 42.1846L234.836 42.1868L0.00415919 55.2814Z" fill="white"/>
<mask id="mask0_8_42" style="mask-type:alpha" maskUnits="userSpaceOnUse" x="-1" y="0" width="236" height="56">
<path fill-rule="evenodd" clip-rule="evenodd" d="M0.00415919 55.2814L-0.00176725 55.2796C-0.00176725 55.2796 5.17038 52.6841 5.17038 49.8278C5.17038 46.9714 -0.00176725 44.9528 -0.00176725 44.9528C-0.00176725 44.9528 5.17036 42.3573 5.17038 39.501C5.1704 36.6447 -0.00176725 34.626 -0.00176725 34.626C-0.00176725 34.626 5.17038 32.0305 5.17038 29.1742C5.17038 26.3178 -0.00176725 24.2991 -0.00176725 24.2991C-0.00176725 24.2991 5.17069 21.7028 5.17038 18.8463C5.17007 15.99 -0.00176725 13.9713 -0.00176725 13.9713L234.837 0.876343C234.837 0.876343 229.668 3.47234 229.668 6.32797C229.668 9.18361 234.837 11.2031 234.837 11.2031C234.837 11.2031 229.668 13.7992 229.668 16.6548C229.668 19.5104 234.837 21.5299 234.837 21.5299C234.837 21.5299 229.667 24.1268 229.668 26.9827C229.668 29.8383 234.837 31.8578 234.837 31.8578C234.837 31.8578 229.668 34.4538 229.668 37.3095C229.668 40.1651 234.837 42.1846 234.837 42.1846L234.836 42.1868L0.00415919 55.2814Z" fill="white"/>
</mask>
<g mask="url(#mask0_8_42)">
<path fill-rule="evenodd" clip-rule="evenodd" d="M64.1122 36.0315C63.8541 33.4319 63.5964 30.8319 63.3383 28.2319C63.1756 28.2367 63.0125 28.2416 62.8494 28.2464C62.3655 30.888 61.8821 33.5292 61.3982 36.1708C61.299 36.1746 61.2002 36.1784 61.101 36.1827C60.9518 33.7654 60.8021 31.3482 60.6525 28.931C60.5558 28.9313 60.4591 28.9321 60.3624 28.9324C59.5717 32.0958 58.7805 35.2596 57.9898 38.4229C57.8418 38.4207 57.6938 38.418 57.5458 38.4157C57.5139 36.8705 57.4214 35.3275 57.466 33.7802C57.5114 32.2143 57.6917 30.6448 57.5963 28.9714C57.2032 29.85 56.774 30.7163 56.4272 31.6108C56.0732 32.5245 55.8403 33.4806 55.4666 34.3862C55.3569 34.652 54.9491 34.8089 54.6776 35.0157C54.5472 34.7112 54.2639 34.3904 54.3106 34.1055C54.7969 31.131 55.2783 28.0281 57.1393 25.5727C59.2442 22.7954 59.3022 20.0281 58.7162 17.0594C57.4411 10.6005 54.4165 5.04842 50.4834 -0.0240149C50.0592 -0.571083 49.6124 -1.10053 48.9835 -1.54435C49.3025 0.795485 49.5855 3.1432 49.947 5.4748C51.9901 18.6617 51.7391 31.9121 48.8246 45.2285C48.6055 46.2308 48.9015 46.5282 49.778 46.6335C52.0376 46.905 54.3009 47.1667 56.5436 47.5218C57.368 47.6523 58.139 48.0345 58.9344 48.3021L58.8902 48.7123C58.535 48.8323 58.1819 49.029 57.8233 49.0606C54.6414 49.3384 51.4578 49.6623 48.2755 49.8163C46.399 49.907 46.3552 49.6673 46.5183 47.816C47.2616 39.3859 46.3346 31.2055 44.0347 23.2506C43.4521 21.2346 42.8795 20.9416 40.7103 21.07C40.3471 21.0914 39.9843 21.1132 39.6215 21.1279C37.2178 21.2252 36.8655 21.3933 36.24 23.804C34.0771 32.1413 32.8383 40.5326 33.7757 49.0053C33.8606 49.7721 33.8585 50.4843 32.8954 50.5264C29.1162 50.6912 25.3378 50.7906 21.5594 50.9055C21.4543 50.9088 21.3517 50.8159 20.8796 50.5971C21.7616 50.1134 22.3938 49.6063 23.0963 49.4117C25.2554 48.8144 27.4418 48.341 29.6156 47.8096C30.2836 47.6463 30.9457 47.4513 31.8058 47.2177C28.0619 31.4443 28.8749 15.4233 31.3652 -0.705404C31.2572 -0.734232 31.1496 -0.76308 31.042 -0.791931C30.4169 0.0533644 29.785 0.893578 29.1675 1.74433C25.3096 7.05911 22.3623 12.7454 21.2227 19.1794C20.685 22.215 20.8927 24.8837 23.0551 27.3087C25.0288 29.5223 25.6665 32.5581 26.158 35.5274C26.216 35.8791 25.9398 36.3035 25.8183 36.6942C25.4765 36.4321 24.967 36.2468 24.8216 35.8949C24.1321 34.228 23.5415 32.5154 22.6381 30.8948C22.7806 34.0311 22.9227 37.1679 23.0652 40.3042C22.8769 40.3424 22.689 40.3805 22.501 40.4182C21.6674 37.2586 20.8338 34.0989 20.0002 30.9397C19.8774 30.9524 19.7551 30.9646 19.6328 30.9773C19.4861 33.4894 19.3398 36.0015 19.1935 38.5132C19.0968 38.5273 19.0001 38.5415 18.9038 38.5557C18.3889 35.9813 17.8739 33.4069 17.3593 30.8328L16.9112 30.8602C16.7704 32.1267 16.6069 33.3924 16.495 34.6603C16.3815 35.9458 16.3193 37.2327 16.0356 38.5739C15.8943 38.111 15.7266 37.655 15.6173 37.1832C15.4016 36.2549 15.3289 35.2713 15.0014 34.3924C13.9816 31.6564 14.5953 29.0646 16.1617 26.6479C17.7268 24.2324 18.1917 21.6338 18.5726 18.9153C19.7749 10.3389 23.568 2.75787 28.8421 -4.22483C30.8856 -6.92948 32.9686 -9.61619 34.8347 -12.4364C38.2171 -17.5482 37.4978 -20.8396 32.3725 -23.6147C29.3352 -25.2594 26.1155 -26.587 23.0177 -28.1315C19.6492 -29.8112 16.5825 -31.9192 14.0438 -34.7015C12.1336 -36.7944 10.6832 -39.1692 10.4621 -42.1249C10.1561 -46.2218 12.3547 -49.2946 15.3247 -51.8795C19.5037 -55.5171 24.4495 -57.6372 29.6543 -59.0388C40.2042 -61.8795 50.4884 -61.6418 60.3704 -57.6908C63.3559 -56.4967 66.1485 -54.9457 68.3274 -52.5534C71.9313 -48.596 72.1554 -44.0435 69.0647 -39.3218C66.6206 -35.588 63.2458 -32.8925 59.4523 -30.71C56.1678 -28.8205 52.7951 -27.0956 49.4955 -25.2334C48.281 -24.5475 47.1132 -23.7426 46.0122 -22.8772C42.9611 -20.4804 42.2893 -17.8405 44.2558 -14.7093C45.9407 -12.0266 47.9111 -9.51868 49.9024 -7.05516C54.7251 -1.08933 58.7654 5.31641 60.6184 12.9613C61.1968 15.3471 61.4482 17.8271 61.9489 20.2382C62.1377 21.1483 62.5362 22.0261 62.9667 22.8464C63.7692 24.3757 64.6961 25.8342 65.5032 27.3611C65.7496 27.8279 65.9535 28.4425 65.866 28.9534C65.4574 31.3378 64.9404 33.7098 64.462 36.0863C64.3451 36.0681 64.2286 36.0498 64.1122 36.0315ZM44.4892 -38.8725L43.9961 -39.0188C43.2633 -38.439 43.0758 -37.7103 43.331 -36.8606C43.4655 -36.8202 43.6001 -36.7795 43.7342 -36.7391C43.986 -37.4504 44.2374 -38.1612 44.4892 -38.8725ZM38.5832 3.30909L42.1649 3.11031V1.99132L38.5832 2.19011V3.30909ZM43.6476 -7.70868L37.1594 -7.34858C37.0854 -7.23539 37.0114 -7.12262 36.9378 -7.00986C37.3061 -6.61787 37.6495 -5.89891 38.0472 -5.89078C39.7615 -5.85376 41.4918 -6.02531 43.2713 -6.12408C43.405 -6.687 43.5147 -7.15 43.6476 -7.70868ZM42.8295 -2.77323L38.0691 -2.50903C37.8501 -1.28307 38.3453 -0.9577 39.3828 -1.12227C40.097 -1.23534 40.828 -1.28808 41.5435 -1.26947C42.6655 -1.24027 42.951 -1.81539 42.8295 -2.77323ZM38.5088 -38.833C38.3646 -38.7634 38.2204 -38.6941 38.0762 -38.6244C38.3398 -37.9124 38.6034 -37.2003 38.8665 -36.4882C39.0246 -36.5549 39.1827 -36.622 39.3407 -36.6891C39.4492 -37.5615 39.4399 -38.3854 38.5088 -38.833ZM25.3647 -35.0243C29.9801 -35.278 33.6559 -39.0663 33.6815 -43.5957C33.708 -48.3291 29.9321 -52.0399 25.3021 -51.8308C20.5887 -51.6174 16.7292 -47.5961 16.7216 -42.8898C16.7136 -38.1835 20.4803 -34.7558 25.3647 -35.0243ZM56.6584 -36.0269C61.4415 -36.2735 65.1539 -40.1675 65.1737 -44.9584C65.193 -49.6112 61.5071 -53.2054 56.935 -52.9919C52.1729 -52.7691 48.3802 -48.77 48.3563 -43.9449C48.3331 -39.2617 51.9783 -35.7852 56.6584 -36.0269ZM38.8056 6.6688C38.8035 7.82524 39.4849 7.97664 41.7663 7.41745C41.8542 6.23695 41.8542 6.23696 38.8056 6.6688Z" fill="black"/>
</g>
<path fill-rule="evenodd" clip-rule="evenodd" d="M76.1694 8.85898L78.2596 8.85856V12.305L76.1694 12.3047V8.85898ZM76.1694 16.8989L78.2596 16.8993L78.2596 23.7906L76.1694 23.7903L76.1694 16.8989ZM76.1694 28.3846L78.2596 28.3842V35.2763L76.1694 35.276V28.3846ZM76.1694 39.8703L78.2596 39.8698V46.7619L76.1694 46.7616V39.8703ZM76.1694 51.3559L78.2596 51.3555V54.8012L76.1694 54.8016V51.3559Z" fill="black"/>
<path d="M90.0211 16.1102L109.532 15.0241V19.4524L95.265 20.2466V27.0624L108.413 26.3305V30.6818L95.265 31.4137V38.345L109.532 37.5508V41.9792L90.0211 43.0652V16.1102ZM114.801 14.7308L120.045 14.4389V36.9656L133.54 36.2144V40.6427L114.801 41.6858V14.7308ZM137.812 13.4499L143.055 13.158V35.6847L156.551 34.9334V39.3618L137.812 40.4049V13.4499ZM161.015 12.1582L166.259 11.8663V38.8213L161.015 39.1132V12.1582ZM172.489 34.0462V15.9478L176.923 11.2726L190.804 10.4999L195.238 14.6814V32.7798L190.804 37.455L176.923 38.2277L172.489 34.0462ZM188.028 33.1427L189.994 31.0694V16.9757L188.028 15.1213L179.699 15.5849L177.733 17.6583V31.7519L179.699 33.6063L188.028 33.1427ZM206.837 14.0358L199.477 14.4455V10.0172L219.44 8.90585V13.3342L212.08 13.7439V36.2706L206.837 36.5625V14.0358Z" fill="black"/>
<path fill-rule="evenodd" clip-rule="evenodd" d="M89.988 15.5146L109.498 14.4285L110.128 15.0242V19.4524L109.565 20.0483L95.8619 20.8111V26.4315L108.38 25.7346L109.01 26.3303V30.6815L108.446 31.2774L95.8619 31.9779V37.7139L109.498 36.9548L110.128 37.5504V41.9787L109.565 42.5746L90.0543 43.6606L89.4235 43.065V16.1105L89.988 15.5146ZM90.0211 16.1104V43.0648L109.532 41.9788V37.5505L95.265 38.3447V31.4136L108.413 30.6816V26.3304L95.265 27.0623V20.2467L109.532 19.4525V15.0243L90.0211 16.1104ZM114.768 14.1352L120.012 13.8433L120.642 14.4389V36.3344L133.507 35.6183L134.138 36.2139V40.6422L133.574 41.2381L114.835 42.2812L114.204 41.6856V14.7311L114.768 14.1352ZM114.801 14.731V41.6855L133.54 40.6423V36.2141L120.045 36.9653V14.4391L114.801 14.731ZM137.778 12.8543L143.022 12.5624L143.653 13.158V35.0535L156.518 34.3374L157.148 34.933V39.3613L156.585 39.9572L137.845 41.0003L137.215 40.4047V13.4502L137.778 12.8543ZM137.812 13.4501V40.4046L156.551 39.3614V34.9332L143.055 35.6844V13.1582L137.812 13.4501ZM160.982 11.5627L166.226 11.2708L166.856 11.8664V38.8209L166.292 39.4168L161.048 39.7087L160.418 39.113V12.1586L160.982 11.5627ZM161.015 12.1585V39.1129L166.259 38.821V11.8666L161.015 12.1585ZM171.892 34.0461V15.9481L172.056 15.5378L176.49 10.8627L176.89 10.6771L190.771 9.90446L191.214 10.0669L195.649 14.2483L195.836 14.6815V32.7795L195.672 33.1898L191.238 37.8649L190.838 38.0504L176.957 38.8231L176.514 38.6607L172.08 34.4793L171.892 34.0461ZM172.489 34.046L176.923 38.2274L190.804 37.4547L195.238 32.7796V14.6816L190.804 10.5002L176.923 11.2729L172.489 15.948V34.046ZM188.028 33.1425L179.699 33.6061L177.733 31.7517V17.6584L179.699 15.5851L188.028 15.1215L189.994 16.9759V31.0692L188.028 33.1425ZM187.758 32.5599L189.398 30.8313V17.2332L187.805 15.7315L179.97 16.1677L178.331 17.8962V31.4944L179.923 32.996L187.758 32.5599ZM206.239 14.6669L199.51 15.0415L198.879 14.4459V10.0176L199.443 9.42174L219.407 8.3104L220.038 8.90603V13.3343L219.474 13.9302L212.677 14.3085V36.2702L212.114 36.8661L206.87 37.158L206.239 36.5624V14.6669ZM206.837 14.036V36.5622L212.08 36.2703V13.7441L219.44 13.3344V8.90618L199.477 10.0175V14.4457L206.837 14.036Z" fill="black"/>
</svg>
