<svg width="73" height="68" viewBox="0 0 73 68" fill="none" xmlns="http://www.w3.org/2000/svg">
<g filter="url(#filter0_b_14_115)">
<rect width="73" height="68" rx="20" fill="url(#paint0_linear_14_115)" fill-opacity="0.15"/>
<rect x="0.5" y="0.5" width="72" height="67" rx="19.5" stroke="url(#paint1_linear_14_115)" stroke-opacity="0.12"/>
</g>
<path d="M26 20.6667H31C31 20.6667 31 25.6667 36 25.6667C41 25.6667 41 20.6667 41 20.6667H46M46 32.3334V46.3334C46 46.8857 45.5523 47.3334 45 47.3334H27C26.4477 47.3334 26 46.8857 26 46.3334V32.3334" stroke="white" stroke-width="1.5" stroke-linecap="round" stroke-linejoin="round"/>
<path d="M46 20.6667L53.4048 23.6287C53.9177 23.8338 54.167 24.4158 53.962 24.9286L51.2515 31.7047C51.0995 32.0844 50.7318 32.3334 50.323 32.3334H46" stroke="white" stroke-width="1.5" stroke-linecap="round" stroke-linejoin="round"/>
<path d="M25.9999 20.6667L18.595 23.6287C18.0822 23.8338 17.8328 24.4158 18.0379 24.9286L20.7484 31.7047C20.9003 32.0844 21.268 32.3334 21.6769 32.3334H25.9999" stroke="white" stroke-width="1.5" stroke-linecap="round" stroke-linejoin="round"/>
<defs>
<filter id="filter0_b_14_115" x="-5" y="-5" width="83" height="78" filterUnits="userSpaceOnUse" color-interpolation-filters="sRGB">
<feFlood flood-opacity="0" result="BackgroundImageFix"/>
<feGaussianBlur in="BackgroundImageFix" stdDeviation="2.5"/>
<feComposite in2="SourceAlpha" operator="in" result="effect1_backgroundBlur_14_115"/>
<feBlend mode="normal" in="SourceGraphic" in2="effect1_backgroundBlur_14_115" result="shape"/>
</filter>
<linearGradient id="paint0_linear_14_115" x1="36.5" y1="0" x2="36.5" y2="68" gradientUnits="userSpaceOnUse">
<stop/>
<stop offset="1" stop-color="#666666"/>
</linearGradient>
<linearGradient id="paint1_linear_14_115" x1="36.5" y1="0" x2="36.5" y2="68" gradientUnits="userSpaceOnUse">
<stop stop-color="white"/>
<stop offset="1" stop-color="#999999"/>
</linearGradient>
</defs>
</svg>
