<svg width="73" height="68" viewBox="0 0 73 68" fill="none" xmlns="http://www.w3.org/2000/svg">
<g filter="url(#filter0_b_14_117)">
<rect width="73" height="68" rx="20" fill="url(#paint0_linear_14_117)" fill-opacity="0.15"/>
<rect x="0.5" y="0.5" width="72" height="67" rx="19.5" stroke="url(#paint1_linear_14_117)" stroke-opacity="0.12"/>
</g>
<path d="M35 27H57" stroke="white" stroke-width="1.5" stroke-linecap="round" stroke-linejoin="round"/>
<path d="M17 31L22.6132 24.6851C24.1314 22.9772 26.3074 22 28.5925 22H29" stroke="white" stroke-width="1.5" stroke-linecap="round" stroke-linejoin="round"/>
<path d="M17 48.0005L28 47.9999L36 42.0005C36 42.0005 37.6182 40.9055 40 39.0001C45 35.0003 40 28.6669 35 31.9993C30.9282 34.7129 27 37.0005 27 37.0005" stroke="white" stroke-width="1.5" stroke-linecap="round" stroke-linejoin="round"/>
<path d="M29 36V23C29 20.7909 30.7909 19 33 19H53C55.2092 19 57 20.7909 57 23V35C57 37.2092 55.2092 39 53 39H40" stroke="white" stroke-width="1.5"/>
<defs>
<filter id="filter0_b_14_117" x="-5" y="-5" width="83" height="78" filterUnits="userSpaceOnUse" color-interpolation-filters="sRGB">
<feFlood flood-opacity="0" result="BackgroundImageFix"/>
<feGaussianBlur in="BackgroundImageFix" stdDeviation="2.5"/>
<feComposite in2="SourceAlpha" operator="in" result="effect1_backgroundBlur_14_117"/>
<feBlend mode="normal" in="SourceGraphic" in2="effect1_backgroundBlur_14_117" result="shape"/>
</filter>
<linearGradient id="paint0_linear_14_117" x1="36.5" y1="0" x2="36.5" y2="68" gradientUnits="userSpaceOnUse">
<stop/>
<stop offset="1" stop-color="#666666"/>
</linearGradient>
<linearGradient id="paint1_linear_14_117" x1="36.5" y1="0" x2="36.5" y2="68" gradientUnits="userSpaceOnUse">
<stop stop-color="white"/>
<stop offset="1" stop-color="#999999"/>
</linearGradient>
</defs>
</svg>
