<svg width="73" height="68" viewBox="0 0 73 68" fill="none" xmlns="http://www.w3.org/2000/svg">
<g filter="url(#filter0_b_14_116)">
<rect width="73" height="68" rx="20" fill="url(#paint0_linear_14_116)" fill-opacity="0.15"/>
<rect x="0.5" y="0.5" width="72" height="67" rx="19.5" stroke="url(#paint1_linear_14_116)" stroke-opacity="0.12"/>
</g>
<path d="M31 25V28C31 28.5523 30.5523 29 30 29H27C26.4477 29 26 28.5523 26 28V25C26 24.4477 26.4477 24 27 24H30C30.5523 24 31 24.4477 31 25Z" stroke="white" stroke-width="1.5" stroke-linecap="round" stroke-linejoin="round"/>
<path d="M26 34H31" stroke="white" stroke-width="1.5" stroke-linecap="round" stroke-linejoin="round"/>
<path d="M41 34V39" stroke="white" stroke-width="1.5" stroke-linecap="round" stroke-linejoin="round"/>
<path d="M36 44H41" stroke="white" stroke-width="1.5" stroke-linecap="round" stroke-linejoin="round"/>
<path d="M36 34.0185L36.0167 34" stroke="white" stroke-width="1.5" stroke-linecap="round" stroke-linejoin="round"/>
<path d="M46 34.0185L46.0167 34" stroke="white" stroke-width="1.5" stroke-linecap="round" stroke-linejoin="round"/>
<path d="M36 39.0185L36.0167 39" stroke="white" stroke-width="1.5" stroke-linecap="round" stroke-linejoin="round"/>
<path d="M46 39.0185L46.0167 39" stroke="white" stroke-width="1.5" stroke-linecap="round" stroke-linejoin="round"/>
<path d="M46 44.0185L46.0167 44" stroke="white" stroke-width="1.5" stroke-linecap="round" stroke-linejoin="round"/>
<path d="M36 29.0185L36.0167 29" stroke="white" stroke-width="1.5" stroke-linecap="round" stroke-linejoin="round"/>
<path d="M36 24.0185L36.0167 24" stroke="white" stroke-width="1.5" stroke-linecap="round" stroke-linejoin="round"/>
<path d="M31 40V43C31 43.5523 30.5523 44 30 44H27C26.4477 44 26 43.5523 26 43V40C26 39.4477 26.4477 39 27 39H30C30.5523 39 31 39.4477 31 40Z" stroke="white" stroke-width="1.5" stroke-linecap="round" stroke-linejoin="round"/>
<path d="M46 25V28C46 28.5523 45.5523 29 45 29H42C41.4477 29 41 28.5523 41 28V25C41 24.4477 41.4477 24 42 24H45C45.5523 24 46 24.4477 46 25Z" stroke="white" stroke-width="1.5" stroke-linecap="round" stroke-linejoin="round"/>
<path d="M46 19H51V24" stroke="white" stroke-width="1.5" stroke-linecap="round" stroke-linejoin="round"/>
<path d="M46 49H51V44" stroke="white" stroke-width="1.5" stroke-linecap="round" stroke-linejoin="round"/>
<path d="M26 19H21V24" stroke="white" stroke-width="1.5" stroke-linecap="round" stroke-linejoin="round"/>
<path d="M26 49H21V44" stroke="white" stroke-width="1.5" stroke-linecap="round" stroke-linejoin="round"/>
<defs>
<filter id="filter0_b_14_116" x="-5" y="-5" width="83" height="78" filterUnits="userSpaceOnUse" color-interpolation-filters="sRGB">
<feFlood flood-opacity="0" result="BackgroundImageFix"/>
<feGaussianBlur in="BackgroundImageFix" stdDeviation="2.5"/>
<feComposite in2="SourceAlpha" operator="in" result="effect1_backgroundBlur_14_116"/>
<feBlend mode="normal" in="SourceGraphic" in2="effect1_backgroundBlur_14_116" result="shape"/>
</filter>
<linearGradient id="paint0_linear_14_116" x1="36.5" y1="0" x2="36.5" y2="68" gradientUnits="userSpaceOnUse">
<stop/>
<stop offset="1" stop-color="#666666"/>
</linearGradient>
<linearGradient id="paint1_linear_14_116" x1="36.5" y1="0" x2="36.5" y2="68" gradientUnits="userSpaceOnUse">
<stop stop-color="white"/>
<stop offset="1" stop-color="#999999"/>
</linearGradient>
</defs>
</svg>
