<svg width="73" height="68" viewBox="0 0 73 68" fill="none" xmlns="http://www.w3.org/2000/svg">
<g filter="url(#filter0_b_14_113)">
<rect width="73" height="68" rx="20" fill="url(#paint0_linear_14_113)" fill-opacity="0.15"/>
<rect x="0.5" y="0.5" width="72" height="67" rx="19.5" stroke="url(#paint1_linear_14_113)" stroke-opacity="0.12"/>
</g>
<path d="M55.8165 29.9657C54.3198 28.469 54.3198 26.0337 55.8165 24.5369C56.0612 24.2923 56.0612 23.8956 55.8165 23.651L46.349 14.1835C46.1044 13.9389 45.7077 13.9388 45.463 14.1835C43.9663 15.6802 41.531 15.6802 40.0343 14.1835C39.7896 13.9389 39.3929 13.9388 39.1483 14.1835L16.1835 37.1483C15.9388 37.393 15.9389 37.7896 16.1835 38.0343C17.6802 39.531 17.6802 41.9663 16.1835 43.463C15.9388 43.7077 15.9389 44.1044 16.1835 44.349L25.651 53.8165C25.8956 54.0612 26.2923 54.0612 26.5369 53.8165C28.0337 52.3198 30.469 52.3198 31.9657 53.8165C32.2104 54.0611 32.607 54.0612 32.8517 53.8165L55.8165 30.8517C56.0612 30.607 56.0612 30.2104 55.8165 29.9657ZM54.5147 30.3816L53.4425 31.4537C53.0455 31.1877 52.5032 31.2299 52.1524 31.5807C51.8017 31.9315 51.7594 32.4737 52.0254 32.8708L32.3816 52.5146C30.5487 51.0841 27.9539 51.0841 26.1211 52.5146L17.4854 43.8789C18.9159 42.046 18.9159 39.4512 17.4854 37.6184L37.1292 17.9745C37.5263 18.2405 38.0685 18.1983 38.4193 17.8476C38.7701 17.4968 38.8123 16.9545 38.5463 16.5575L39.6184 15.4854C41.4513 16.9159 44.0461 16.9159 45.879 15.4854L54.5147 24.1211C53.0841 25.9539 53.0841 28.5487 54.5147 30.3816Z" fill="white"/>
<path d="M46.0082 25.4365C46.4072 25.0376 46.4072 24.3908 46.0082 23.9918C45.6093 23.5929 44.9624 23.5929 44.5635 23.9918C44.1646 24.3908 44.1646 25.0376 44.5635 25.4365C44.9625 25.8355 45.6093 25.8355 46.0082 25.4365Z" fill="white"/>
<path d="M43.4786 22.9068C43.8775 22.5078 43.8775 21.861 43.4786 21.462C43.0796 21.0631 42.4328 21.0631 42.0339 21.462C41.6349 21.861 41.6349 22.5078 42.0339 22.9068C42.4328 23.3057 43.0796 23.3057 43.4786 22.9068Z" fill="white"/>
<path d="M40.949 20.3772C41.3479 19.9783 41.3479 19.3315 40.949 18.9325C40.55 18.5336 39.9032 18.5336 39.5042 18.9325C39.1053 19.3314 39.1053 19.9783 39.5042 20.3772C39.9032 20.7762 40.55 20.7762 40.949 20.3772Z" fill="white"/>
<path d="M47.0932 26.5214C46.6942 26.9203 46.6942 27.5671 47.0932 27.9661C47.4921 28.365 48.1389 28.365 48.5379 27.9661C48.9368 27.5671 48.9368 26.9203 48.5379 26.5214C48.1389 26.1224 47.4921 26.1224 47.0932 26.5214Z" fill="white"/>
<path d="M49.6228 29.0512C49.2238 29.4501 49.2238 30.0969 49.6228 30.4959C50.0217 30.8948 50.6686 30.8948 51.0675 30.4959C51.4664 30.0969 51.4664 29.4501 51.0675 29.0512C50.6686 28.6522 50.0218 28.6522 49.6228 29.0512Z" fill="white"/>
<defs>
<filter id="filter0_b_14_113" x="-5" y="-5" width="83" height="78" filterUnits="userSpaceOnUse" color-interpolation-filters="sRGB">
<feFlood flood-opacity="0" result="BackgroundImageFix"/>
<feGaussianBlur in="BackgroundImageFix" stdDeviation="2.5"/>
<feComposite in2="SourceAlpha" operator="in" result="effect1_backgroundBlur_14_113"/>
<feBlend mode="normal" in="SourceGraphic" in2="effect1_backgroundBlur_14_113" result="shape"/>
</filter>
<linearGradient id="paint0_linear_14_113" x1="36.5" y1="0" x2="36.5" y2="68" gradientUnits="userSpaceOnUse">
<stop/>
<stop offset="1" stop-color="#666666"/>
</linearGradient>
<linearGradient id="paint1_linear_14_113" x1="36.5" y1="0" x2="36.5" y2="68" gradientUnits="userSpaceOnUse">
<stop stop-color="white"/>
<stop offset="1" stop-color="#999999"/>
</linearGradient>
</defs>
</svg>
