<svg width="73" height="68" viewBox="0 0 73 68" fill="none" xmlns="http://www.w3.org/2000/svg">
<g filter="url(#filter0_b_14_111)">
<rect width="73" height="68" rx="20" fill="url(#paint0_linear_14_111)" fill-opacity="0.15"/>
<rect x="0.5" y="0.5" width="72" height="67" rx="19.5" stroke="url(#paint1_linear_14_111)" stroke-opacity="0.12"/>
</g>
<path d="M21 23.9999H52.6667L47.6667 40.6666H26L21 23.9999ZM21 23.9999L19.75 19.8333" stroke="white" stroke-width="1.5" stroke-linecap="round" stroke-linejoin="round"/>
<path d="M34.3333 46.5C34.3333 47.8807 33.214 49 31.8333 49C30.4526 49 29.3333 47.8807 29.3333 46.5" stroke="white" stroke-width="1.5" stroke-linecap="round" stroke-linejoin="round"/>
<path d="M44.3333 46.5C44.3333 47.8807 43.214 49 41.8333 49C40.4527 49 39.3333 47.8807 39.3333 46.5" stroke="white" stroke-width="1.5" stroke-linecap="round" stroke-linejoin="round"/>
<defs>
<filter id="filter0_b_14_111" x="-5" y="-5" width="83" height="78" filterUnits="userSpaceOnUse" color-interpolation-filters="sRGB">
<feFlood flood-opacity="0" result="BackgroundImageFix"/>
<feGaussianBlur in="BackgroundImageFix" stdDeviation="2.5"/>
<feComposite in2="SourceAlpha" operator="in" result="effect1_backgroundBlur_14_111"/>
<feBlend mode="normal" in="SourceGraphic" in2="effect1_backgroundBlur_14_111" result="shape"/>
</filter>
<linearGradient id="paint0_linear_14_111" x1="36.5" y1="0" x2="36.5" y2="68" gradientUnits="userSpaceOnUse">
<stop/>
<stop offset="1" stop-color="#666666"/>
</linearGradient>
<linearGradient id="paint1_linear_14_111" x1="36.5" y1="0" x2="36.5" y2="68" gradientUnits="userSpaceOnUse">
<stop stop-color="white"/>
<stop offset="1" stop-color="#999999"/>
</linearGradient>
</defs>
</svg>
