<svg width="73" height="68" viewBox="0 0 73 68" fill="none" xmlns="http://www.w3.org/2000/svg">
<g filter="url(#filter0_b_14_112)">
<rect width="73" height="68" rx="20" fill="url(#paint0_linear_14_112)" fill-opacity="0.15"/>
<rect x="0.5" y="0.5" width="72" height="67" rx="19.5" stroke="url(#paint1_linear_14_112)" stroke-opacity="0.12"/>
</g>
<path d="M21 48V20C21 19.4477 21.4477 19 22 19H50C50.5523 19 51 19.4477 51 20V48C51 48.5523 50.5523 49 50 49H22C21.4477 49 21 48.5523 21 48Z" stroke="white" stroke-width="1.5"/>
<path d="M41 28.1667C39.8583 27.0251 37.8478 26.231 36 26.1813M36 26.1813C33.8015 26.1221 31.8333 27.1167 31.8333 29.8334C31.8333 34.8334 41 32.3334 41 37.3334C41 40.1851 38.5603 41.4104 36 41.3184M36 26.1813V23.1667M31 39.0001C32.0741 40.4322 34.0713 41.2491 36 41.3184M36 41.3184V44.8334" stroke="white" stroke-width="1.5" stroke-linecap="round" stroke-linejoin="round"/>
<defs>
<filter id="filter0_b_14_112" x="-5" y="-5" width="83" height="78" filterUnits="userSpaceOnUse" color-interpolation-filters="sRGB">
<feFlood flood-opacity="0" result="BackgroundImageFix"/>
<feGaussianBlur in="BackgroundImageFix" stdDeviation="2.5"/>
<feComposite in2="SourceAlpha" operator="in" result="effect1_backgroundBlur_14_112"/>
<feBlend mode="normal" in="SourceGraphic" in2="effect1_backgroundBlur_14_112" result="shape"/>
</filter>
<linearGradient id="paint0_linear_14_112" x1="36.5" y1="0" x2="36.5" y2="68" gradientUnits="userSpaceOnUse">
<stop/>
<stop offset="1" stop-color="#666666"/>
</linearGradient>
<linearGradient id="paint1_linear_14_112" x1="36.5" y1="0" x2="36.5" y2="68" gradientUnits="userSpaceOnUse">
<stop stop-color="white"/>
<stop offset="1" stop-color="#999999"/>
</linearGradient>
</defs>
</svg>
